<svg xmlns="http://www.w3.org/2000/svg" viewBox="0 0 330 330" xml:space="preserve"><path fill="white" d="M246.504 35.833C224.202 12.726 195.257 0 165 0 101.589 0 50 51.589 50 115c0 8.284 6.716 15 15 15 8.284 0 15-6.716 15-15 0-46.869 38.131-85 85-85 48.649 0 85 44.876 85 85 0 44.866-48.145 116.704-66.779 140.712-14.471 18.081-33.568 39.234-40.911 44.288H105c-8.284 0-15 6.716-15 15s6.716 15 15 15h40.001c8.385 0 17.229-4.777 39.898-29.965 11.41-12.679 21.394-25.141 21.814-25.665l.127-.161C209.828 270.368 280 179.407 280 115c0-28.256-12.209-57.111-33.496-79.167z"/><path fill="white" d="M125 220c-8.284 0-15 6.716-15 15s6.716 15 15 15c24.813 0 45-20.186 45-45 0-19.555-12.542-36.227-30-42.42V115c0-13.785 11.215-25 25-25s25 11.215 25 25c0 8.284 6.716 15 15 15 8.284 0 15-6.716 15-15 0-30.327-24.673-55-55-55s-55 24.673-55 55v60c0 8.284 6.716 15 15 15 8.271 0 15 6.729 15 15s-6.729 15-15 15z"/></svg>