<svg xmlns="http://www.w3.org/2000/svg" xml:space="preserve" viewBox="0 0 100 100"><path fill="white" d="M93.161.071C59.66-1.043 32.22 11.314 32.22 11.314l-.02 62.709c-3.411-1.354-7.559-1.675-11.772-.651-9.083 2.207-15.031 9.82-13.285 17.007s10.524 11.225 19.606 9.019c8.564-2.081 14.338-8.969 13.507-15.772V36.771s19.404-6.784 44.573-8.485v34.849c-3.374-1.292-7.443-1.585-11.579-.58-9.083 2.206-15.031 9.819-13.285 17.007 1.745 7.187 10.523 11.224 19.606 9.018 7.931-1.927 13.471-7.977 13.587-14.264l.003.004V.071z"/></svg>