<?xml version="1.0" encoding="utf-8"?>
<!-- Svg Vector Icons : http://www.onlinewebfonts.com/icon -->
<!DOCTYPE svg PUBLIC "-//W3C//DTD SVG 1.1//EN" "http://www.w3.org/Graphics/SVG/1.1/DTD/svg11.dtd">
<svg version="1.1" xmlns="http://www.w3.org/2000/svg" xmlns:xlink="http://www.w3.org/1999/xlink" x="0px" y="0px" viewBox="0 0 1000 1000" enable-background="new 0 0 1000 1000" xml:space="preserve">
<metadata> Svg Vector Icons : http://www.onlinewebfonts.com/icon </metadata>
<g><g><path fill="white" d="M849.6,10H197.4C155.9,10,122,43.9,122,85.4v47H83.8c-4.9,0-8.8,4-8.8,8.8v97.1c0,4.9,4,8.8,8.8,8.8H122v92.1H83.8c-4.9,0-8.8,4-8.8,8.8v97.1c0,4.9,4,8.8,8.8,8.8H122V546H83.8c-4.9,0-8.8,3.9-8.8,8.8v97.1c0,4.9,4,8.8,8.8,8.8H122v92.1H83.8c-4.9,0-8.8,4-8.8,8.8v97.1c0,4.8,4,8.8,8.8,8.8H122v47c0,41.5,33.9,75.4,75.4,75.4h652.2c41.5,0,75.4-33.9,75.4-75.4V85.4C925,43.9,891.1,10,849.6,10z M751.1,499.5c-8.4-102.3-138-53.5-199.6-101.7v265.4c0,50.6-51.2,91.6-114.4,91.5c-63.2,0-114.4-40.9-114.4-91.5c0-50.4,51.2-91.5,114.4-91.5c20,0,38.4,4.4,54.7,11.6v-338h59.7C592.9,315.9,787.6,290.4,751.1,499.5z"/></g><g></g><g></g><g></g><g></g><g></g><g></g><g></g><g></g><g></g><g></g><g></g><g></g><g></g><g></g><g></g></g>
</svg>
