<svg xmlns="http://www.w3.org/2000/svg" viewBox="0 0 511.999 511.999" xml:space="preserve"><path fill = "white" d="M421.789 183.966c-7.766-7.766-20.36-7.767-28.127 0L270.063 307.567c-18.096 18.094-47.539 18.094-65.632.001-18.094-18.094-18.094-47.536-.001-65.632l123.601-123.598c7.767-7.767 7.767-20.36.001-28.127-7.767-7.767-20.36-7.766-28.127-.001L176.304 213.809c-28.761 28.762-32.881 72.955-12.407 106.166L5.826 478.047c-7.767 7.767-7.767 20.36 0 28.127a19.826 19.826 0 0 0 14.064 5.825 19.82 19.82 0 0 0 14.063-5.825l158.07-158.071c13.81 8.514 29.51 12.794 45.221 12.794 22.07 0 44.142-8.4 60.945-25.201l123.6-123.602c7.766-7.768 7.766-20.361 0-28.128zM271.775 33.955c-7.767-7.767-20.36-7.766-28.127 0L129.993 147.607c-7.767 7.766-7.767 20.359 0 28.126a19.829 19.829 0 0 0 14.064 5.826 19.83 19.83 0 0 0 14.063-5.825L271.775 62.082c7.767-7.767 7.767-20.361 0-28.127zM478.043 240.222c-7.766-7.767-20.36-7.767-28.127 0L336.262 353.877c-7.767 7.767-7.767 20.36 0 28.127a19.827 19.827 0 0 0 14.063 5.826c5.09 0 10.181-1.941 14.064-5.826l113.654-113.655c7.768-7.767 7.768-20.361 0-28.127zM506.174 324.607c-7.766-7.767-20.36-7.766-28.127 0l-57.399 57.396c-7.767 7.767-7.767 20.36-.001 28.127a19.827 19.827 0 0 0 14.064 5.826 19.83 19.83 0 0 0 14.063-5.825l57.399-57.396c7.767-7.768 7.767-20.361.001-28.128zM187.393 5.825c-7.766-7.766-20.36-7.767-28.127 0l-57.398 57.399c-7.766 7.767-7.766 20.36 0 28.127a19.826 19.826 0 0 0 14.064 5.825c5.09 0 10.181-1.941 14.064-5.826l57.396-57.398c7.767-7.767 7.767-20.361.001-28.127z"/></svg>