<svg xmlns="http://www.w3.org/2000/svg" viewBox="0 0 512 512" xml:space="preserve">
<path fill = "white" d="M509.278 55.277 456.724 2.722a9.292 9.292 0 0 0-13.141 0L98.346 347.959c-3.629 3.629-3.629 9.513 0 13.14l15.575 15.576c-8.016 3.001-17.41 1.285-23.846-5.15a22.489 22.489 0 0 1-.738-.776 9.292 9.292 0 0 0-6.657-3.047c-2.556-.083-4.999.921-6.797 2.718l-52.791 52.791c-3.406 3.406-3.615 8.798-.627 12.448L2.722 455.402a9.29 9.29 0 0 0 0 13.14l40.735 40.735a9.29 9.29 0 0 0 13.14 0l19.744-19.744a9.287 9.287 0 0 0 12.446-.627l420.491-420.49c3.629-3.628 3.629-9.512 0-13.139zM50.027 489.567l-27.594-27.594 13.14-13.139 27.594 27.594-13.14 13.139zm32.19-20.371-39.414-39.414 40.145-40.145c15.979 10.828 37.959 9.174 52.105-4.972a9.29 9.29 0 0 0 0-13.14l-16.996-16.996L450.152 22.433l39.414 39.414L82.217 469.196z"/>
<circle fill = "white" cx="217.88" cy="281.698" r="9.259"/>
<circle fill = "white" cx="437.383" cy="62.183" r="9.259"/>
<circle fill = "white" cx="406.025" cy="93.54" r="9.259"/>
<circle fill = "white" cx="374.667" cy="124.898" r="9.259"/>
<circle fill = "white" cx="343.31" cy="156.255" r="9.259"/>
<circle fill = "white" cx="311.952" cy="187.625" r="9.259"/>
<circle fill = "white" cx="280.595" cy="218.983" r="9.259"/>
<circle fill = "white" cx="249.237" cy="250.34" r="9.259"/>
</svg>